<svg height="1024pt" preserveAspectRatio="xMidYMid meet" viewBox="0 0 1024 1024" width="1024pt" xmlns="http://www.w3.org/2000/svg"><g transform="matrix(.1 0 0 -.1 0 1024)"><path d="m0 5120v-5120h5120 5120v5120 5120h-5120-5120zm4267 3246c103-22 150-40 352-133 263-120 322-136 496-137 165-1 230 14 408 95 359 163 408 178 575 186 130 6 169-4 255-68 148-110 369-434 567-830 320-638 629-1504 760-2128 17-80 37-173 45-206 43-186 91-646 104-987 17-461-17-880-99-1206-28-109-31-115-76-155-173-154-440-340-659-460-450-248-983-407-1530-457-142-13-548-13-690 0-547 50-1080 209-1530 457-219 120-486 306-659 460-45 39-50 49-72 135-180 700-132 1829 117 2753 151 557 422 1274 674 1775 139 277 319 568 445 718 65 78 156 154 218 183 48 22 203 25 299 5z"/><path d="m3992 8184c-6-3-9-10-6-16 4-6-1-8-15-3-12 3-20 2-19-2 2-5-10-22-27-36l-30-27 26 9c23 8 28 7 33-12 3-13 9-18 13-12 5 6 13 10 18 10 6 0 36 6 68 14 57 14 79 40 35 42-16 0-11 5 17 14l40 13-41 1c-23 1-54 3-70 6-16 2-35 2-42-1z"/><path d="m6150 8182-55-5 40-13c27-8 33-13 18-13-45-2-23-28 35-42 31-8 62-14 67-14 6 0 13-4 18-10 4-6 10-1 13 12 5 19 10 20 33 12l26-9-30 25c-16 14-29 30-27 36 1 6-6 8-19 4-13-5-19-3-15 3 6 10-17 23-37 20-7-1-37-4-67-6z"/><path d="m4316 6874c-163-51-237-214-145-319 127-145 415-17 397 177-11 113-130 180-252 142z"/><path d="m5806 6879c-109-26-164-134-120-237 46-110 200-179 308-138 114 43 148 161 78 265-35 52-82 84-152 105-60 18-59 18-114 5z"/><path d="m4782 6423c-7-2-17-13-22-24-15-27 0-50 66-104 73-59 114-61 190-9l52 36 54-40c83-63 123-61 201 9 57 51 70 82 45 107-22 22-56 12-103-28l-47-41-42 34c-86 71-118 74-196 18l-54-39-56 44c-56 44-64 47-88 37z"/></g></svg>