<svg xmlns="http://www.w3.org/2000/svg" viewBox="0 0 560 560">
  <defs>
    <radialGradient id="b" data-name="Unbenannter Verlauf" cx="280" cy="280" fx="280" fy="280" r="185.58" gradientUnits="userSpaceOnUse">
      <stop offset="0" stop-color="#000" stop-opacity="0"/>
      <stop offset=".8" stop-color="#000" stop-opacity=".1"/>
      <stop offset="1" stop-color="#000" stop-opacity=".2"/>
    </radialGradient>
  </defs>
  <path d="m441.51,280.29h.02c-12.74-75.27-66.32-198.97-93.99-201.75-27.66-2.78-42.06,18-67.53,18.01-25.46,0-39.86-20.79-67.53-18.01-27.67,2.78-81.25,126.49-93.99,201.75-12.74,75.27-6.59,147.84,19.76,174.2,26.26,26.26,140.99,27.25,141.75,27.23.76.02,115.48-.97,141.75-27.23,26.35-26.35,32.5-98.93,19.76-174.2Z" fill="#0049ff" />
  <path d="m441.51,280.29h.02c-12.74-75.27-66.32-198.97-93.99-201.75-27.66-2.78-42.06,18-67.53,18.01-25.46,0-39.86-20.79-67.53-18.01-27.67,2.78-81.25,126.49-93.99,201.75-12.74,75.27-6.59,147.84,19.76,174.2,26.26,26.26,140.99,27.25,141.75,27.23.76.02,115.48-.97,141.75-27.23,26.35-26.35,32.5-98.93,19.76-174.2Z" fill="url(#b)" opacity=".8"/>
  <ellipse cx="237.64" cy="182.33" rx="12.34" ry="10.21" transform="translate(-55.73 121.91) rotate(-25.86)"/>
  <ellipse cx="322.38" cy="182.35" rx="10.21" ry="12.34" transform="translate(17.68 392.92) rotate(-64.14)"/>
  <path d="m293.78,198.53c-.9-1.04-2.48-1.17-3.53-.27l-4.42,3.78c-.18.15-.44.16-.63.02l-4.78-3.62c-1.95-1.48-4.58-1.5-6.56-.06l-4.24,3.09c-.18.13-.43.12-.61-.02l-4.96-3.99c-1.08-.87-2.65-.7-3.52.38s-.7,2.65.38,3.52l4.96,3.99c1.93,1.56,4.68,1.62,6.69.16l4.24-3.09c.18-.14.42-.13.6,0l4.78,3.62c.98.74,2.15,1.11,3.32,1.11h0c1.28-.01,2.56-.45,3.58-1.32l4.42-3.78c1.05-.89,1.18-2.47.28-3.52Z"/>
  <path d="m237.32,198.64c-7.16.55-12.83,2.87-12.65,5.18.18,2.31,6.13,3.74,13.29,3.19,7.16-.55,12.83-2.87,12.65-5.18-.18-2.31-6.13-3.74-13.29-3.19Z" fill="red" opacity=".1"/>
  <path d="m322.71,198.67c-7.16-.55-13.12.88-13.29,3.19-.18,2.31,5.49,4.63,12.65,5.18,7.16.55,13.12-.88,13.29-3.19.18-2.31-5.49-4.63-12.65-5.18Z" fill="red" opacity=".1"/>
</svg>